<?xml version="1.0" encoding="UTF-8"?>
<svg width="127px" height="75px" viewBox="0 0 127 75" version="1.1" xmlns="http://www.w3.org/2000/svg" xmlns:xlink="http://www.w3.org/1999/xlink">
    <!-- Generator: Sketch 49.3 (51167) - http://www.bohemiancoding.com/sketch -->
    <title>beyond ideas copy</title>
    <desc>Created with Sketch.</desc>
    <defs></defs>
    <g id="Home" stroke="none" stroke-width="1" fill="none" fill-rule="evenodd">
        <g id="Home-Page" transform="translate(-787.000000, -1909.000000)" fill="#E0E0E0">
            <path d="M794.570361,1909.36484 C799.769284,1909.36484 802.003909,1911.78188 802.003909,1916.70718 L802.003909,1917.84729 C802.003909,1921.13082 801.000608,1923.22863 798.765983,1924.27754 C801.456654,1925.32644 802.505559,1927.74349 802.505559,1931.11822 L802.505559,1933.71769 C802.505559,1938.64298 799.906098,1941.28805 794.889593,1941.28805 L787,1941.28805 L787,1909.36484 L794.570361,1909.36484 Z M794.251129,1926.9226 L792.016505,1926.9226 L792.016505,1936.72759 L794.889593,1936.72759 C796.576963,1936.72759 797.489055,1935.95231 797.489055,1933.58087 L797.489055,1930.79899 C797.489055,1927.83469 796.531359,1926.9226 794.251129,1926.9226 Z M794.433548,1913.9253 L792.016505,1913.9253 L792.016505,1922.36214 L793.977502,1922.36214 C795.84729,1922.36214 796.987404,1921.54126 796.987404,1918.9874 L796.987404,1917.20883 C796.987404,1914.9286 796.212126,1913.9253 794.433548,1913.9253 Z M810.857714,1913.9253 L810.857714,1922.81819 L817.744006,1922.81819 L817.744006,1927.37865 L810.857714,1927.37865 L810.857714,1936.72759 L819.522585,1936.72759 L819.522585,1941.28805 L805.841209,1941.28805 L805.841209,1909.36484 L819.522585,1909.36484 L819.522585,1913.9253 L810.857714,1913.9253 Z M827.646716,1941.28805 L827.646716,1930.70778 L821.307679,1909.36484 L826.552206,1909.36484 L830.382992,1923.9127 L834.213777,1909.36484 L839.002259,1909.36484 L832.663221,1930.70778 L832.663221,1941.28805 L827.646716,1941.28805 Z M845.256602,1916.70718 L845.256602,1933.94571 C845.256602,1936.22594 846.259903,1937.09243 847.856063,1937.09243 C849.452224,1937.09243 850.455525,1936.22594 850.455525,1933.94571 L850.455525,1916.70718 C850.455525,1914.42695 849.452224,1913.56046 847.856063,1913.56046 C846.259903,1913.56046 845.256602,1914.42695 845.256602,1916.70718 Z M840.240097,1933.62648 L840.240097,1917.02641 C840.240097,1911.91869 842.930768,1909 847.856063,1909 C852.781359,1909 855.472029,1911.91869 855.472029,1917.02641 L855.472029,1933.62648 C855.472029,1938.73419 852.781359,1941.65288 847.856063,1941.65288 C842.930768,1941.65288 840.240097,1938.73419 840.240097,1933.62648 Z M869.75278,1941.28805 L863.504951,1918.16652 L863.504951,1941.28805 L858.990097,1941.28805 L858.990097,1909.36484 L865.28353,1909.36484 L870.436849,1928.47316 L870.436849,1909.36484 L874.906098,1909.36484 L874.906098,1941.28805 L869.75278,1941.28805 Z M878.834607,1941.28805 L878.834607,1909.36484 L886.769805,1909.36484 C891.78631,1909.36484 894.248958,1912.14672 894.248958,1917.25443 L894.248958,1933.39845 C894.248958,1938.50617 891.78631,1941.28805 886.769805,1941.28805 L878.834607,1941.28805 Z M886.678596,1913.9253 L883.851112,1913.9253 L883.851112,1936.72759 L886.678596,1936.72759 C888.274757,1936.72759 889.232453,1935.90671 889.232453,1933.62648 L889.232453,1917.02641 C889.232453,1914.74618 888.274757,1913.9253 886.678596,1913.9253 Z M787,1983.63516 L787,1951.71195 L792.016505,1951.71195 L792.016505,1983.63516 L787,1983.63516 Z M795.990618,1983.63516 L795.990618,1951.71195 L803.925817,1951.71195 C808.942321,1951.71195 811.404969,1954.49383 811.404969,1959.60155 L811.404969,1975.74557 C811.404969,1980.85328 808.942321,1983.63516 803.925817,1983.63516 L795.990618,1983.63516 Z M803.834607,1956.27241 L801.007123,1956.27241 L801.007123,1979.0747 L803.834607,1979.0747 C805.430768,1979.0747 806.388464,1978.25382 806.388464,1975.97359 L806.388464,1959.37352 C806.388464,1957.09329 805.430768,1956.27241 803.834607,1956.27241 Z M819.939541,1956.27241 L819.939541,1965.16531 L826.825834,1965.16531 L826.825834,1969.72576 L819.939541,1969.72576 L819.939541,1979.0747 L828.604413,1979.0747 L828.604413,1983.63516 L814.923037,1983.63516 L814.923037,1951.71195 L828.604413,1951.71195 L828.604413,1956.27241 L819.939541,1956.27241 Z M843.158791,1951.71195 L848.266505,1983.63516 L843.204395,1983.63516 L842.337908,1977.84338 L836.181289,1977.84338 L835.314802,1983.63516 L830.708739,1983.63516 L835.816452,1951.71195 L843.158791,1951.71195 Z M839.236796,1957.36692 L836.819753,1973.51095 L841.653839,1973.51095 L839.236796,1957.36692 Z M850.279621,1959.37352 C850.279621,1954.26581 852.787874,1951.34712 857.667564,1951.34712 C862.547255,1951.34712 865.055507,1954.26581 865.055507,1959.37352 L865.055507,1960.37682 L860.31263,1960.37682 L860.31263,1959.05429 C860.31263,1956.77406 859.400539,1955.90757 857.804378,1955.90757 C856.208218,1955.90757 855.296126,1956.77406 855.296126,1959.05429 C855.296126,1965.62135 865.101112,1966.85268 865.101112,1975.97359 C865.101112,1981.08131 862.547255,1984 857.62196,1984 C852.696664,1984 850.142808,1981.08131 850.142808,1975.97359 L850.142808,1974.0126 L854.885685,1974.0126 L854.885685,1976.29282 C854.885685,1978.57305 855.888985,1979.39394 857.485146,1979.39394 C859.081306,1979.39394 860.084607,1978.57305 860.084607,1976.29282 C860.084607,1969.72576 850.279621,1968.49444 850.279621,1959.37352 Z M901.011466,1910.39606 L901.011466,1909 L905.758066,1909 L905.758066,1910.39606 L904.152599,1910.39606 L904.152599,1918.77241 L902.616934,1918.77241 L902.616934,1910.39606 L901.011466,1910.39606 Z M908.749621,1909 L909.880428,1915.93841 L910.927472,1909 L913.063442,1909 L913.063442,1918.77241 L911.611541,1918.77241 L911.611541,1911.7642 L910.550536,1918.77241 L909.098635,1918.77241 L907.953867,1911.86192 L907.953867,1918.77241 L906.613651,1918.77241 L906.613651,1909 L908.749621,1909 Z" id="beyond-ideas-copy"></path>
        </g>
    </g>
</svg>