<?xml version="1.0" encoding="UTF-8"?>
<svg width="50px" height="50px" viewBox="0 0 50 50" version="1.1" xmlns="http://www.w3.org/2000/svg" xmlns:xlink="http://www.w3.org/1999/xlink">
    <!-- Generator: Sketch 49.3 (51167) - http://www.bohemiancoding.com/sketch -->
    <title>Artboard 2</title>
    <desc>Created with Sketch.</desc>
    <defs></defs>
    <g id="Artboard-2" stroke="none" stroke-width="1" fill="none" fill-rule="evenodd">
        <g id="Group-2" transform="translate(10.000000, 0.000000)" fill="#0079D4" fill-rule="nonzero">
            <path d="M24.3588587,50 L4.87260466,50 C2.18573106,50 0,47.8024509 0,45.1010496 L0,4.89895042 C0,2.19754913 2.18573106,0 4.87260466,0 L24.3581646,0 C27.0450382,0 29.2307692,2.19754913 29.2307692,4.89895042 L29.2307692,45.1010496 C29.2307692,46.4095299 28.724768,47.6398504 27.8050812,48.5652077 C26.8847003,49.490565 25.6609963,50 24.3588587,50 Z M4.87260466,2.09356856 C3.3337778,2.09356856 2.08230968,3.35180326 2.08230968,4.89895042 L2.08230968,45.1010496 C2.08230968,46.6481967 3.3337778,47.9064314 4.87260466,47.9064314 L24.3588587,47.9064314 C25.8976855,47.9064314 27.1491537,46.6481967 27.1491537,45.1010496 L27.1484595,4.89895042 C27.1484595,3.35180326 25.8969914,2.09356856 24.3581646,2.09356856 L4.87260466,2.09356856 Z" id="Shape"></path>
            <path d="M14.2307692,46.1538462 C12.3216421,46.1538462 10.7692308,44.6014348 10.7692308,42.6923077 C10.7692308,40.7831806 12.3216421,39.2307692 14.2307692,39.2307692 C16.1398964,39.2307692 17.6923077,40.7831806 17.6923077,42.6923077 C17.6923077,44.6014348 16.1398964,46.1538462 14.2307692,46.1538462 Z M14.2307692,41.2235951 C13.4210177,41.2235951 12.7620566,41.8825561 12.7620566,42.6923077 C12.7620566,43.5020593 13.4210177,44.1610203 14.2307692,44.1610203 C15.0405208,44.1610203 15.6994819,43.5020593 15.6994819,42.6923077 C15.6994819,41.8825561 15.0405208,41.2235951 14.2307692,41.2235951 Z" id="Shape"></path>
            <path d="M15.9405785,6.92307692 L10.2132677,6.92307692 C9.67027353,6.92307692 9.23076923,6.40692308 9.23076923,5.76923077 C9.23076923,5.13153846 9.67027353,4.61538462 10.2132677,4.61538462 L15.9405785,4.61538462 C16.4835726,4.61538462 16.9230769,5.13153846 16.9230769,5.76923077 C16.9230769,6.40692308 16.4829176,6.92307692 15.9405785,6.92307692 Z" id="Shape"></path>
            <path d="M19.7875125,6.92307692 L19.4432567,6.92307692 C18.9006937,6.92307692 18.4615385,6.40692308 18.4615385,5.76923077 C18.4615385,5.13153846 18.9006937,4.61538462 19.4432567,4.61538462 L19.7875125,4.61538462 C20.3300755,4.61538462 20.7692308,5.13153846 20.7692308,5.76923077 C20.7692308,6.40692308 20.3300755,6.92307692 19.7875125,6.92307692 Z" id="Shape"></path>
        </g>
    </g>
</svg>