<?xml version="1.0" encoding="UTF-8"?>
<svg width="70px" height="70px" viewBox="0 0 70 70" version="1.1" xmlns="http://www.w3.org/2000/svg" xmlns:xlink="http://www.w3.org/1999/xlink">
    <!-- Generator: Sketch 49.3 (51167) - http://www.bohemiancoding.com/sketch -->
    <title>Artboard 2 Copy</title>
    <desc>Created with Sketch.</desc>
    <defs></defs>
    <g id="Artboard-2-Copy" stroke="none" stroke-width="1" fill="none" fill-rule="evenodd">
        <g id="noun_54230_cc" transform="translate(3.000000, 0.000000)" fill="#FE006A" fill-rule="nonzero">
            <g id="Group">
                <g transform="translate(13.264298, 14.211748)" id="Shape">
                    <path d="M41.9900292,48.0499184 C41.8119086,48.0499184 41.6318932,48.0158102 41.4575624,47.9456989 C32.5780626,44.3501268 11.2964444,34.5326516 7.4355863,32.5145834 C4.73724917,31.1047781 1.37853951,29.3491535 0.484146865,26.3258411 C0.0189489967,24.7530744 0.289919649,23.0571392 1.29137412,21.285408 C4.40753663,15.7703025 10.4475293,18.4061079 13.692545,19.821598 C14.0137305,19.9618206 14.315967,20.0935161 14.5926224,20.2081575 C16.6173226,21.0466506 22.7473231,23.1613587 26.3334207,24.3845164 C26.2197267,23.4958084 26.2633094,22.4915116 26.6546062,21.4910046 C27.2211812,20.0423538 28.3713853,18.9101512 30.0824797,18.1105036 C29.4003158,16.6466936 29.3178877,14.8588558 29.944152,13.2472436 C30.6338955,11.4755124 32.0673871,10.2381429 33.9556546,9.71041335 C33.3369699,8.24849826 32.966517,6.15747647 34.1896747,3.87885962 C34.9656361,2.43305118 36.1527908,1.4467559 37.621338,1.02608817 C40.7109719,0.144012375 44.0109397,1.96216861 44.3766554,2.17250247 C45.0569243,2.56379925 45.2918919,3.4316633 44.9015426,4.11287973 C44.5111932,4.79409616 43.6423817,5.02811627 42.9611653,4.63776694 C42.2505779,4.23510076 40.03923,3.28859838 38.3944571,3.76137584 C37.6649207,3.97265716 37.1087677,4.45017187 36.6937846,5.22329094 C35.3948309,7.64118292 37.2707816,9.80705324 37.3513148,9.89800842 C37.7255575,10.320571 37.8174601,10.9278864 37.5805977,11.4404568 C37.3437352,11.9530271 36.82927,12.2732652 36.2655373,12.2685279 C34.4274846,12.2268401 33.1124243,12.9450071 32.5941692,14.2790165 C32.1204443,15.4974369 32.4075216,16.9839857 33.2630688,17.7362609 C33.6543656,18.0801852 33.825854,18.6117046 33.7102651,19.1195377 C33.5937288,19.6283182 33.2090642,20.0319319 32.7069157,20.1721544 C30.8650733,20.6866197 29.7215013,21.474898 29.3074657,22.5151979 C28.6916233,24.0623834 29.7707687,25.8881193 29.7821381,25.9061208 C30.0891118,26.4167963 30.0474241,27.0686418 29.6731814,27.5328922 C29.2998861,27.9971426 28.678359,28.1818953 28.1136789,27.9924054 C27.6409015,27.8332338 16.5055236,24.0775426 13.5058974,22.8363834 C13.2140828,22.7151098 12.8957397,22.5767821 12.5565527,22.4280325 C8.76201607,20.7728376 5.48004984,19.6491621 3.76611309,22.6847914 C3.14932325,23.7762536 2.96741288,24.703807 3.20901259,25.5214562 C3.76137584,27.3898273 6.52792936,28.8356357 8.75159412,29.9972092 C12.578344,31.9972758 33.7007906,41.7408499 42.5234435,45.3136832 C43.2510849,45.6083401 43.6016414,46.4373587 43.3069845,47.1640528 C43.0843338,47.7145211 42.551867,48.0499184 41.9900292,48.0499184 Z"></path>
                    <path d="M43.7589181,55.2372728 C42.0089782,55.2372728 40.2656705,54.9464057 38.5583659,54.3627766 C32.8660873,52.4157672 27.837971,47.2682722 24.7634963,40.2400894 C24.448943,39.5209749 24.7767606,38.6824818 25.495875,38.368876 C26.2130946,38.0533752 27.0534826,38.3821402 27.3670885,39.1012547 C30.12322,45.4017961 34.5373888,49.9846109 39.4783397,51.673914 C43.2103446,52.9501289 47.0134082,52.5550423 50.7814162,50.4990762 C51.4711597,50.123886 52.3333391,50.3768552 52.7094766,51.0665986 C53.0846668,51.7553947 52.8316977,52.6185215 52.1419542,52.994659 C49.4085614,54.4849976 46.574739,55.2372728 43.7589181,55.2372728 Z"></path>
                </g>
                <g id="Shape">
                    <path d="M27.5565784,63.0044665 L6.38012719,63.0044665 C2.95793838,63.0044665 0.17433077,60.2208589 0.17433077,56.7986701 L0.17433077,6.86427405 C0.17433077,3.4430327 2.95793838,0.659425085 6.38012719,0.659425085 L30.7134813,0.659425085 C34.1347226,0.659425085 36.9183303,3.4430327 36.9183303,6.86427405 L36.9183303,38.8426009 C36.9183303,39.6280368 36.2825914,40.2637756 35.4971555,40.2637756 C34.7117196,40.2637756 34.0759808,39.6280368 34.0759808,38.8426009 L34.0759808,6.86427405 C34.0759808,5.01011473 32.5676406,3.50177459 30.7134813,3.50177459 L6.38012719,3.50177459 C4.52502041,3.50177459 3.01668027,5.01011473 3.01668027,6.86427405 L3.01668027,56.7996176 C3.01668027,58.6547244 4.52502041,60.1630645 6.38012719,60.1630645 L27.5575259,60.1630645 C31.3056374,60.1630645 34.2654707,60.1630645 34.2654707,53.2343639 C34.2654707,52.4489279 34.9012096,51.8131891 35.6866455,51.8131891 C36.4720814,51.8131891 37.1078202,52.4489279 37.1078202,53.2343639 C37.1078202,63.0044665 31.3605895,63.0044665 27.5565784,63.0044665 Z"></path>
                    <path d="M18.5453831,58.2880613 C15.988216,58.2880613 13.9085636,56.2074614 13.9085636,53.6493469 C13.9085636,51.0912323 15.988216,49.0106325 18.5453831,49.0106325 C21.1044451,49.0106325 23.1850449,51.0912323 23.1850449,53.6493469 C23.1850449,56.2074614 21.1034976,58.2880613 18.5453831,58.2880613 Z M18.5453831,51.8539294 C17.5562454,51.8539294 16.7509131,52.6592618 16.7509131,53.6502943 C16.7509131,54.6413269 17.5562454,55.4466592 18.5453831,55.4466592 C19.5364156,55.4466592 20.3426954,54.6413269 20.3426954,53.6502943 C20.3426954,52.6592618 19.5364156,51.8539294 18.5453831,51.8539294 Z"></path>
                    <g transform="translate(10.421948, 6.632149)">
                        <path d="M9.7530486,2.88308985 L2.17534482,2.88308985 C1.38990891,2.88308985 0.754170068,2.24735101 0.754170068,1.46191509 C0.754170068,0.676479182 1.38990891,0.0407403429 2.17534482,0.0407403429 L9.7530486,0.0407403429 C10.5384845,0.0407403429 11.1742233,0.676479182 11.1742233,1.46191509 C11.1742233,2.24735101 10.5384845,2.88308985 9.7530486,2.88308985 Z"></path>
                        <path d="M14.0753147,2.88308985 L13.6176965,2.88308985 C12.8322606,2.88308985 12.1965217,2.24735101 12.1965217,1.46191509 C12.1965217,0.676479182 12.8322606,0.0407403429 13.6176965,0.0407403429 L14.0753147,0.0407403429 C14.8607507,0.0407403429 15.4964895,0.676479182 15.4964895,1.46191509 C15.4964895,2.24735101 14.8607507,2.88308985 14.0753147,2.88308985 Z"></path>
                    </g>
                </g>
                <g transform="translate(13.264298, 15.159197)" id="Shape">
                    <path d="M5.05748722,20.1636274 C4.2720513,20.1636274 3.63631247,19.5278885 3.63631247,18.7424526 L3.63631247,1.53392128 C3.63631247,0.748485369 4.2720513,0.11274653 5.05748722,0.11274653 C5.84292313,0.11274653 6.47866197,0.748485369 6.47866197,1.53392128 L6.47866197,18.7434001 C6.47866197,19.5278885 5.84292313,20.1636274 5.05748722,20.1636274 Z"></path>
                    <path d="M8.49957247,6.17926782 C8.15185838,6.17926782 7.80224939,6.05230954 7.52843639,5.79555064 L4.08635114,2.5704314 C3.51409144,2.03417479 3.48377304,1.13409745 4.0209771,0.561837752 C4.55818115,-0.0104219482 5.45731105,-0.0407403429 6.02957075,0.496463713 L9.471656,3.72158295 C10.0439157,4.25783956 10.0742341,5.1579169 9.53703003,5.7301766 C9.25753233,6.0286233 8.8785524,6.17926782 8.49957247,6.17926782 Z"></path>
                    <path d="M1.68551326,5.94240536 C1.29232157,5.94240536 0.901972243,5.78039144 0.621527091,5.4639432 C0.101377132,4.8765243 0.155381773,3.97834186 0.74280067,3.4581919 L4.11572208,0.469935118 C4.70314098,-0.0511622911 5.60037597,0.00378979934 6.12147338,0.591208697 C6.64162334,1.17862759 6.5876187,2.07681004 6.0001998,2.59696 L2.62727839,5.58521677 C2.35725519,5.82492158 2.01996305,5.94240536 1.68551326,5.94240536 Z"></path>
                </g>
            </g>
        </g>
    </g>
</svg>