<?xml version="1.0" encoding="UTF-8"?>
<svg width="70px" height="70px" viewBox="0 0 70 70" version="1.1" xmlns="http://www.w3.org/2000/svg" xmlns:xlink="http://www.w3.org/1999/xlink">
    <!-- Generator: Sketch 49.3 (51167) - http://www.bohemiancoding.com/sketch -->
    <title>Artboard 2 Copy 2</title>
    <desc>Created with Sketch.</desc>
    <defs></defs>
    <g id="Artboard-2-Copy-2" stroke="none" stroke-width="1" fill="none" fill-rule="evenodd">
        <g id="Data" transform="translate(14.000000, 0.000000)" fill="#00B4CD" fill-rule="nonzero">
            <g id="Group" transform="translate(6.805556, 25.277778)">
                <path d="M2.26722222,18.9583333 C1.94541667,18.9583333 1.62263889,18.8523611 1.35333333,18.6345833 C0.72625,18.1290278 0.628055556,17.21125 1.13361111,16.5841667 L9.23611111,6.53819444 C9.74166667,5.91013889 10.6584722,5.81194444 11.2865278,6.31847222 C11.9136111,6.82402778 12.0118056,7.74180556 11.50625,8.36888889 L3.40277778,18.4148611 C3.115,18.7726389 2.69305556,18.9583333 2.26722222,18.9583333 Z" id="Shape"></path>
                <path d="M17.4990278,13.9348611 C17.2093056,13.9348611 16.9156944,13.8483333 16.6609722,13.6684722 L9.53166667,8.645 C8.87347222,8.18125 8.71597222,7.27125 9.17972222,6.61305556 C9.64347222,5.95486111 10.5534722,5.79638889 11.2116667,6.26111111 L18.3409722,11.2845833 C18.9991667,11.7483333 19.1566667,12.6583333 18.6929167,13.3165278 C18.4080556,13.7190278 17.9569444,13.9348611 17.4990278,13.9348611 Z" id="Shape"></path>
                <path d="M17.5,13.9348611 C17.1548611,13.9348611 16.8077778,13.8133333 16.5297222,13.5644444 C15.9288889,13.0277778 15.8763889,12.1061111 16.4120833,11.5052778 L25.8105556,0.973194444 C26.3472222,0.372361111 27.2679167,0.318888889 27.8697222,0.855555556 C28.4705556,1.39222222 28.5230556,2.31388889 27.9873611,2.91472222 L18.5888889,13.4468056 C18.3001389,13.7705556 17.9005556,13.9348611 17.5,13.9348611 Z" id="Shape"></path>
                <path d="M26.8984722,3.40277778 L21.5813889,3.40277778 C20.7754167,3.40277778 20.1230556,2.75041667 20.1230556,1.94444444 C20.1230556,1.13847222 20.7754167,0.486111111 21.5813889,0.486111111 L26.8984722,0.486111111 C27.7044444,0.486111111 28.3568056,1.13847222 28.3568056,1.94444444 C28.3568056,2.75041667 27.7044444,3.40277778 26.8984722,3.40277778 Z" id="Shape"></path>
                <path d="M26.8984722,8.91138889 C26.0925,8.91138889 25.4401389,8.25902778 25.4401389,7.45305556 L25.4401389,1.94444444 C25.4401389,1.13847222 26.0925,0.486111111 26.8984722,0.486111111 C27.7044444,0.486111111 28.3568056,1.13847222 28.3568056,1.94444444 L28.3568056,7.45305556 C28.3568056,8.25902778 27.7044444,8.91138889 26.8984722,8.91138889 Z" id="Shape"></path>
            </g>
            <g id="Group">
                <path d="M35.0359722,69.8288889 L7.74180556,69.8288889 C3.97833333,69.8288889 0.916805556,66.7673611 0.916805556,63.0038889 L0.916805556,6.99611111 C0.916805556,3.23263889 3.97833333,0.171111111 7.74180556,0.171111111 L35.035,0.171111111 C38.7984722,0.171111111 41.86,3.23263889 41.86,6.99611111 L41.86,63.0038889 C41.86,64.8268056 41.15125,66.5408333 39.8630556,67.83 C38.5738889,69.1191667 36.8598611,69.8288889 35.0359722,69.8288889 Z M7.74180556,3.08777778 C5.58638889,3.08777778 3.83347222,4.84069444 3.83347222,6.99611111 L3.83347222,63.0038889 C3.83347222,65.1593056 5.58638889,66.9122222 7.74180556,66.9122222 L35.0359722,66.9122222 C37.1913889,66.9122222 38.9443056,65.1593056 38.9443056,63.0038889 L38.9433333,6.99611111 C38.9433333,4.84069444 37.1904167,3.08777778 35.035,3.08777778 L7.74180556,3.08777778 Z" id="Shape"></path>
                <path d="M21.3888889,64.5390278 C18.5947222,64.5390278 16.3226389,62.2669444 16.3226389,59.4727778 C16.3226389,56.6786111 18.5947222,54.4065278 21.3888889,54.4065278 C24.1830556,54.4065278 26.4551389,56.6786111 26.4551389,59.4727778 C26.4551389,62.2669444 24.1830556,64.5390278 21.3888889,64.5390278 Z M21.3888889,57.3231944 C20.20375,57.3231944 19.2393056,58.2876389 19.2393056,59.4727778 C19.2393056,60.6579167 20.20375,61.6223611 21.3888889,61.6223611 C22.5740278,61.6223611 23.5384722,60.6579167 23.5384722,59.4727778 C23.5384722,58.2876389 22.5740278,57.3231944 21.3888889,57.3231944 Z" id="Shape"></path>
                <g transform="translate(12.638889, 6.805556)" id="Shape">
                    <path d="M10.5777778,3.0275 L2.07666667,3.0275 C1.27069444,3.0275 0.618333333,2.37513889 0.618333333,1.56916667 C0.618333333,0.763194444 1.27069444,0.110833333 2.07666667,0.110833333 L10.5777778,0.110833333 C11.38375,0.110833333 12.0361111,0.763194444 12.0361111,1.56916667 C12.0361111,2.37513889 11.3827778,3.0275 10.5777778,3.0275 Z"></path>
                    <path d="M15.4243056,3.0275 L14.9129167,3.0275 C14.1069444,3.0275 13.4545833,2.37513889 13.4545833,1.56916667 C13.4545833,0.763194444 14.1069444,0.110833333 14.9129167,0.110833333 L15.4243056,0.110833333 C16.2302778,0.110833333 16.8826389,0.763194444 16.8826389,1.56916667 C16.8826389,2.37513889 16.2302778,3.0275 15.4243056,3.0275 Z"></path>
                </g>
            </g>
        </g>
    </g>
</svg>