<?xml version="1.0" encoding="UTF-8"?>
<svg width="397px" height="120px" viewBox="0 0 397 120" version="1.1" xmlns="http://www.w3.org/2000/svg" xmlns:xlink="http://www.w3.org/1999/xlink">
    <!-- Generator: Sketch 49.3 (51167) - http://www.bohemiancoding.com/sketch -->
    <title>Group 2</title>
    <desc>Created with Sketch.</desc>
    <defs></defs>
    <g id="Page-1" stroke="none" stroke-width="1" fill="none" fill-rule="evenodd">
        <g id="Artboard-Copy-11" transform="translate(-203.000000, -363.000000)" fill="#AFB2B4">
            <g id="Group-2" transform="translate(203.000000, 363.000000)">
                <g id="Group" transform="translate(60.500000, 60.000000) rotate(90.000000) translate(-60.500000, -60.000000) translate(0.500000, -0.500000)">
                    <path d="M120,120 L60,60 L120,0 L120,120 Z M98.4,74.4 C104.696046,74.4 109.8,69.2960461 109.8,63 C109.8,56.7039539 104.696046,51.6 98.4,51.6 C92.1039539,51.6 87,56.7039539 87,63 C87,69.2960461 92.1039539,74.4 98.4,74.4 Z" id="Combined-Shape"></path>
                    <polygon id="Rectangle-Copy" transform="translate(60.000000, 61.000000) scale(-1, 1) translate(-60.000000, -61.000000) " points="120 1 120 121 7.10542736e-15 121"></polygon>
                </g>
                <path d="M121.78501,94.2928711 L166.845654,94.2928711 L166.845654,100.8 L121.833936,100.8 L121.78501,94.2928711 Z M121.833936,59.9958984 L165.0354,59.9958984 L165.0354,66.5519531 L121.833936,66.5519531 L121.833936,59.9958984 Z M121.833936,27.655957 L166.845654,27.655957 L166.845654,34.1630859 L121.833936,34.1630859 L121.833936,27.655957 Z M174.820557,27.655957 L199.283447,27.655957 C200.294585,27.655957 201.631876,27.7048823 203.295361,27.8027344 C204.958846,27.9005864 206.296138,28.0473623 207.307275,28.2430664 C209.786194,28.7975614 211.889982,29.6700624 213.618701,30.8605957 C215.347421,32.051129 216.766254,33.4862709 217.875244,35.1660645 C218.984234,36.845858 219.80781,38.6724022 220.345996,40.645752 C220.884182,42.6191017 221.153271,44.6331929 221.153271,46.6880859 C221.153271,48.2863361 220.916799,49.9253334 220.443848,51.605127 C219.970896,53.2849205 219.253325,54.8586841 218.291113,56.3264648 C217.328901,57.7942456 216.105769,59.1070743 214.62168,60.2649902 C213.13759,61.4229062 211.433359,62.2464819 209.508936,62.7357422 C211.498594,63.1271504 213.365909,63.8610298 215.110937,64.9374023 C216.855966,66.0137749 218.364496,67.3021409 219.636572,68.8025391 C220.908649,70.3029372 221.911617,71.999014 222.645508,73.8908203 C223.379398,75.7826266 223.746338,77.804872 223.746338,79.9576172 C223.746338,82.3713011 223.395707,84.6789441 222.694434,86.8806152 C221.993161,89.0822864 220.990192,91.0882234 219.685498,92.8984863 C218.380804,94.7087493 216.790732,96.2417418 214.915234,97.4975098 C213.039737,98.7532778 210.97672,99.6583957 208.726123,100.212891 C207.64975,100.473829 206.271688,100.636914 204.591895,100.702148 C202.912101,100.767383 201.51773,100.8 200.40874,100.8 L174.820557,100.8 L174.820557,27.655957 Z M182.452979,94.2928711 L202.047754,94.2928711 C202.683792,94.2928711 203.336129,94.2765627 204.004785,94.2439453 C204.673441,94.211328 205.325778,94.1624027 205.961816,94.097168 C206.597855,94.0319333 207.11157,93.9340827 207.502979,93.8036133 C210.308071,92.9881795 212.444475,91.3247196 213.912256,88.8131836 C215.380037,86.3016476 216.113916,83.3498216 216.113916,79.9576172 C216.113916,76.9568209 215.176181,74.233313 213.300684,71.7870117 C211.425186,69.3407104 208.856608,67.7261758 205.594873,66.9433594 C204.812057,66.7476553 203.800934,66.5927252 202.561475,66.4785645 C201.322015,66.3644037 200.261967,66.3073242 199.381299,66.3073242 L182.452979,66.3073242 L182.452979,94.2928711 Z M199.381299,59.8001953 C200.327202,59.8001953 201.485101,59.7186532 202.855029,59.5555664 C204.224958,59.3924797 205.333931,59.1478532 206.181982,58.8216797 C208.399962,57.8757765 210.177581,56.3509383 211.514893,54.2471191 C212.852204,52.1433 213.52085,49.6888812 213.52085,46.8837891 C213.52085,44.274401 212.950055,41.8362906 211.808447,39.5693848 C210.66684,37.3024789 208.628286,35.6960985 205.692725,34.7501953 C204.975143,34.4892565 203.931403,34.3261722 202.561475,34.2609375 C201.191546,34.1957028 200.098881,34.1630859 199.283447,34.1630859 L182.452979,34.1630859 L182.452979,59.8001953 L199.381299,59.8001953 Z M230.253467,25.2585938 L284.169678,83.9695313 L284.169678,27.655957 L291.8021,27.655957 L291.8021,103.393066 L237.885889,44.5842773 L237.885889,100.8 L230.253467,100.8 L230.253467,25.2585938 Z M301.782959,27.655957 L346.794678,27.655957 L346.794678,34.1630859 L309.415381,34.1630859 L309.415381,59.9958984 L344.984424,59.9958984 L344.984424,66.5519531 L309.415381,66.5519531 L309.415381,94.2928711 L346.794678,94.2928711 L346.794678,100.8 L301.782959,100.8 L301.782959,27.655957 Z M369.300537,34.1630859 L349.77915,34.1630859 L349.77915,27.655957 L396.356494,27.655957 L396.356494,34.1630859 L376.932959,34.1630859 L376.932959,100.8 L369.300537,100.8 L369.300537,34.1630859 Z" id="Ebnet"></path>
            </g>
        </g>
    </g>
</svg>