<?xml version="1.0" encoding="UTF-8"?>
<svg width="63px" height="58px" viewBox="0 0 63 58" version="1.1" xmlns="http://www.w3.org/2000/svg" xmlns:xlink="http://www.w3.org/1999/xlink">
    <!-- Generator: Sketch 49.3 (51167) - http://www.bohemiancoding.com/sketch -->
    <title>Group</title>
    <desc>Created with Sketch.</desc>
    <defs></defs>
    <g id="Page-2" stroke="none" stroke-width="1" fill="none" fill-rule="evenodd">
        <g id="Artboard" transform="translate(-156.000000, -419.000000)" fill="#AFB2B4">
            <g id="Group" transform="translate(156.000000, 419.000000)">
                <path d="M29.5166464,22.0578907 L27.3139308,22.0578907 L27.3139308,27.3608282 C27.3139308,31.3322977 26.2501193,34.2405648 24.1224646,36.0857166 C21.9948099,37.9308683 19.1639896,38.8534304 15.6299191,38.8534304 C12.0958485,38.8534304 9.27404361,37.9308683 7.16441984,36.0857166 C5.05479606,34.2405648 4,31.3322977 4,27.3608282 L4,11.4926022 C4,7.52113266 5.05479606,4.61286562 7.16441984,2.76771383 C9.27404361,0.922562052 12.0597871,0 15.5217338,0 C19.0558044,0 21.9046553,0.869844221 24.068372,2.60955876 C26.2320886,4.3492733 27.3139308,6.62492636 27.3139308,9.43658622 C27.3139308,10.2449384 27.1246084,10.807262 26.745958,11.1235737 C26.3673075,11.4398854 25.7993404,11.5980389 25.0420396,11.5980389 C23.5634999,11.5980389 22.8062104,11.0884332 22.7701484,10.0692065 C22.3013431,6.02744548 19.9212905,4.00659527 15.6299191,4.00659527 C10.9058043,4.00659527 8.54378233,6.50190596 8.54378233,11.4926022 L8.54378233,27.3608282 C8.54378233,32.3515244 10.9058043,34.8468351 15.6299191,34.8468351 C17.9018216,34.8468351 19.659815,34.2230075 20.9039521,32.9753334 C22.1480892,31.7276593 22.7701484,29.8561763 22.7701484,27.3608282 L22.7701484,22.0578907 L15.8333996,22.0578907 C14.7979095,22.0578907 13.9584789,21.2184601 13.9584789,20.18297 C13.9584789,19.1474799 14.7979095,18.3080493 15.8333996,18.3080493 L16.11054,18.3080493 C16.1823273,18.2981967 16.2565218,18.2932705 16.3331235,18.2932705 L25.745244,18.2932705 C25.8343478,18.2932705 25.9198007,18.2981967 26.0016029,18.3080493 L36.9983971,18.3080493 C37.0801993,18.2981967 37.1656522,18.2932705 37.254756,18.2932705 L46.6668765,18.2932705 C47.1356818,18.2932705 47.5143266,18.4777829 47.8028221,18.8468133 C48.0913177,19.2158436 48.2355633,19.6463726 48.2355633,20.138413 C48.2355633,20.6304535 48.100333,21.0609825 47.8298684,21.4300128 C47.5594039,21.7990432 47.1717438,21.9835556 46.6668765,21.9835556 L40.2298516,21.9835556 L40.2298516,27.3608282 C40.2298516,29.8561763 40.8519108,31.7276593 42.0960479,32.9753334 C43.340185,34.2230075 45.0981784,34.8468351 47.3700809,34.8468351 C52.0941957,34.8468351 54.4562177,32.3515244 54.4562177,27.3608282 L54.4562177,11.4926022 C54.4562177,6.50190596 52.0941957,4.00659527 47.3700809,4.00659527 C43.0787095,4.00659527 40.6986569,6.02744548 40.2298516,10.0692065 C40.1937896,11.0884332 39.4365001,11.5980389 37.9579604,11.5980389 C37.2006596,11.5980389 36.6326925,11.4398854 36.254042,11.1235737 C35.8753916,10.807262 35.6860692,10.2449384 35.6860692,9.43658622 C35.6860692,6.62492636 36.7679114,4.3492733 38.931628,2.60955876 C41.0953447,0.869844221 43.9441956,0 47.4782662,0 C50.9402129,0 53.7259564,0.922562052 55.8355802,2.76771383 C57.9452039,4.61286562 59,7.52113266 59,11.4926022 L59,27.3608282 C59,31.3322977 57.9452039,34.2405648 55.8355802,36.0857166 C53.7259564,37.9308683 50.9041515,38.8534304 47.3700809,38.8534304 C43.8360104,38.8534304 41.0051901,37.9308683 38.8775354,36.0857166 C36.7498807,34.2405648 35.6860692,31.3322977 35.6860692,27.3608282 L35.6860692,22.0578907 L33.7076457,22.0578907 L33.7076457,37.0839343 C33.7076457,38.2412468 32.7694585,39.1794339 31.6121461,39.1794339 C30.4548336,39.1794339 29.5166464,38.2412468 29.5166464,37.0839343 L29.5166464,22.0578907 Z" id="Combined-Shape"></path>
                <path d="M28,14.0285714 C28,13.190472 28.2912592,12.4761934 28.8737864,11.8857143 C29.4563136,11.2952351 30.174753,11 31.0291262,11 C31.8446643,11 32.5436864,11.2952351 33.1262136,11.8857143 C33.7087408,12.4761934 34,13.190472 34,14.0285714 C34,14.8285754 33.7087408,15.5238066 33.1262136,16.1142857 C32.5436864,16.7047649 31.8446643,17 31.0291262,17 C30.174753,17 29.4563136,16.7047649 28.8737864,16.1142857 C28.2912592,15.5238066 28,14.8285754 28,14.0285714 Z" id=".-copy-2"></path>
                <path d="M0,55.6958277 L0,52.3580081 C0,51.5684124 0.207464266,50.9887861 0.622399021,50.6191117 C1.03733378,50.2494374 1.58995983,50.064603 2.28029376,50.064603 C2.97797166,50.064603 3.53610562,50.2386703 3.95471236,50.5868102 C4.37331911,50.9349501 4.58261934,51.3817828 4.58261934,51.9273217 C4.58261934,52.1713785 4.46144552,52.2934051 4.21909425,52.2934051 C3.98408695,52.2934051 3.86291313,52.2036797 3.85556916,52.0242261 C3.75275346,51.1556708 3.23133885,50.7213997 2.29130967,50.7213997 C1.2484648,50.7213997 0.727050184,51.2669304 0.727050184,52.3580081 L0.727050184,55.6958277 C0.727050184,56.2485447 0.862911738,56.6612817 1.13463892,56.9340511 C1.40636611,57.2068206 1.79191917,57.3432032 2.29130967,57.3432032 C2.79070017,57.3432032 3.17625323,57.2068206 3.44798042,56.9340511 C3.7197076,56.6612817 3.85556916,56.2485447 3.85556916,55.6958277 L3.85556916,54.4145357 L2.37943696,54.4145357 C2.29865321,54.4145357 2.23439436,54.384029 2.18665851,54.3230148 C2.13892265,54.2620006 2.11505508,54.1884257 2.11505508,54.102288 C2.11505508,54.0233285 2.13892265,53.9533426 2.18665851,53.8923284 C2.23439436,53.8313142 2.29865321,53.8008075 2.37943696,53.8008075 L4.31823745,53.8008075 C4.49449293,53.8008075 4.58261934,53.894122 4.58261934,54.0807537 L4.58261934,55.6958277 C4.58261934,56.4926016 4.37515507,57.0758169 3.96022032,57.4454913 C3.54528556,57.8151656 2.98898758,58 2.29130967,58 C1.59363176,58 1.03733378,57.8151656 0.622399021,57.4454913 C0.207464266,57.0758169 0,56.4926016 0,55.6958277 Z M5.37576499,50.3983849 C5.37576499,50.3122472 5.39963256,50.2350833 5.44736842,50.166891 C5.49510428,50.0986986 5.56303506,50.064603 5.65116279,50.064603 L10.0685435,50.064603 C10.1566712,50.064603 10.224602,50.0969041 10.2723378,50.1615074 C10.3200737,50.2261107 10.3439412,50.3014801 10.3439412,50.3876178 C10.3439412,50.4809336 10.3200737,50.5616865 10.2723378,50.6298789 C10.224602,50.6980712 10.1566712,50.7321669 10.0685435,50.7321669 L8.22888617,50.7321669 L8.22888617,57.6554509 C8.22888617,57.7415886 8.19216683,57.8097799 8.11872705,57.8600269 C8.04528727,57.9102739 7.96083279,57.935397 7.86536108,57.935397 C7.76254539,57.935397 7.67625494,57.9102739 7.60648715,57.8600269 C7.53671936,57.8097799 7.50183599,57.7415886 7.50183599,57.6554509 L7.50183599,50.7321669 L5.65116279,50.7321669 C5.57037903,50.7321669 5.50428422,50.6998657 5.45287638,50.6352624 C5.40146853,50.5706592 5.37576499,50.4917008 5.37576499,50.3983849 Z M11.2582619,55.6958277 L11.2582619,52.3580081 C11.2582619,51.5684124 11.4657262,50.9887861 11.880661,50.6191117 C12.2955957,50.2494374 12.8518937,50.064603 13.5495716,50.064603 C14.2472495,50.064603 14.8035475,50.2494374 15.2184823,50.6191117 C15.633417,50.9887861 15.8408813,51.5684124 15.8408813,52.3580081 L15.8408813,55.6958277 C15.8408813,56.4926016 15.633417,57.0758169 15.2184823,57.4454913 C14.8035475,57.8151656 14.2472495,58 13.5495716,58 C12.8518937,58 12.2955957,57.8151656 11.880661,57.4454913 C11.4657262,57.0758169 11.2582619,56.4926016 11.2582619,55.6958277 Z M11.9853121,55.6958277 C11.9853121,56.7940836 12.5067267,57.3432032 13.5495716,57.3432032 C14.5924165,57.3432032 15.1138311,56.7940836 15.1138311,55.6958277 L15.1138311,52.3580081 C15.1138311,51.2669304 14.5924165,50.7213997 13.5495716,50.7213997 C12.5067267,50.7213997 11.9853121,51.2669304 11.9853121,52.3580081 L11.9853121,55.6958277 Z M17.4271726,57.6554509 L17.4271726,50.333782 C17.4271726,50.1543284 17.5483464,50.064603 17.7906977,50.064603 C17.9963291,50.064603 18.1872696,50.2296978 18.3635251,50.5598923 L21.3378213,56.2880215 L21.3378213,50.3230148 C21.3378213,50.1507394 21.4589951,50.064603 21.7013464,50.064603 C21.9436977,50.064603 22.0648715,50.1507394 22.0648715,50.3230148 L22.0648715,57.6554509 C22.0648715,57.7415886 22.0281521,57.8097799 21.9547124,57.8600269 C21.8812726,57.9102739 21.7968181,57.935397 21.7013464,57.935397 C21.5177469,57.935397 21.3561818,57.7990144 21.2166463,57.526245 L18.1542228,51.7012113 L18.1542228,57.6554509 C18.1542228,57.7415886 18.1175034,57.8097799 18.0440636,57.8600269 C17.9706239,57.9102739 17.8861694,57.935397 17.7906977,57.935397 C17.687882,57.935397 17.6015915,57.9102739 17.5318237,57.8600269 C17.462056,57.8097799 17.4271726,57.7415886 17.4271726,57.6554509 Z M23.7392901,57.6554509 L23.7392901,50.3230148 C23.7392901,50.1507394 23.8604639,50.064603 24.1028152,50.064603 C24.3451665,50.064603 24.4663403,50.1507394 24.4663403,50.3230148 L24.4663403,57.6554509 C24.4663403,57.7415886 24.4296209,57.8097799 24.3561812,57.8600269 C24.2827414,57.9102739 24.1982869,57.935397 24.1028152,57.935397 C23.9999995,57.935397 23.913709,57.9102739 23.8439412,57.8600269 C23.7741735,57.8097799 23.7392901,57.7415886 23.7392901,57.6554509 Z M25.5348837,57.6339166 C25.5348837,57.5980258 25.5385557,57.5729027 25.5458996,57.5585464 L27.8482252,50.2476447 C27.8996331,50.0825474 28.0428385,50 28.2778458,50 C28.5128531,50 28.6597304,50.0825474 28.7184823,50.2476447 L31.0097919,57.5585464 C31.0097919,57.5657246 31.0116279,57.5764916 31.0152999,57.5908479 C31.0189719,57.6052042 31.0208078,57.6159713 31.0208078,57.6231494 C31.0208078,57.7092871 30.9730727,57.782862 30.877601,57.8438762 C30.7821293,57.9048904 30.6829871,57.935397 30.5801714,57.935397 C30.4406358,57.935397 30.3488374,57.8743837 30.3047736,57.7523553 L29.7980416,56.0942127 L26.746634,56.0942127 L26.2399021,57.7523553 C26.2105262,57.8743837 26.1150559,57.935397 25.9534884,57.935397 C25.8506727,57.935397 25.7552024,57.9066849 25.6670747,57.8492598 C25.5789469,57.7918346 25.5348837,57.7200543 25.5348837,57.6339166 Z M26.9339045,55.4804845 L29.6107711,55.4804845 L28.2778458,51.141319 L26.9339045,55.4804845 Z M34.2044064,55.6958277 L34.2044064,52.3580081 C34.2044064,51.5684124 34.4118706,50.9887861 34.8268054,50.6191117 C35.2417401,50.2494374 35.7943662,50.064603 36.4847001,50.064603 C37.182378,50.064603 37.740512,50.2386703 38.1591187,50.5868102 C38.5777255,50.9349501 38.7870257,51.3817828 38.7870257,51.9273217 C38.7870257,52.1713785 38.6658519,52.2934051 38.4235006,52.2934051 C38.1884933,52.2934051 38.0673195,52.2036797 38.0599755,52.0242261 C37.9571598,51.1556708 37.4357452,50.7213997 36.495716,50.7213997 C35.4528712,50.7213997 34.9314565,51.2669304 34.9314565,52.3580081 L34.9314565,55.6958277 C34.9314565,56.2485447 35.0673181,56.6612817 35.3390453,56.9340511 C35.6107725,57.2068206 35.9963255,57.3432032 36.495716,57.3432032 C36.9951065,57.3432032 37.3806596,57.2068206 37.6523868,56.9340511 C37.924114,56.6612817 38.0599755,56.2485447 38.0599755,55.6958277 L38.0599755,54.4145357 L36.5838433,54.4145357 C36.5030596,54.4145357 36.4388007,54.384029 36.3910649,54.3230148 C36.343329,54.2620006 36.3194614,54.1884257 36.3194614,54.102288 C36.3194614,54.0233285 36.343329,53.9533426 36.3910649,53.8923284 C36.4388007,53.8313142 36.5030596,53.8008075 36.5838433,53.8008075 L38.5226438,53.8008075 C38.6988993,53.8008075 38.7870257,53.894122 38.7870257,54.0807537 L38.7870257,55.6958277 C38.7870257,56.4926016 38.5795614,57.0758169 38.1646267,57.4454913 C37.7496919,57.8151656 37.1933939,58 36.495716,58 C35.7980381,58 35.2417401,57.8151656 34.8268054,57.4454913 C34.4118706,57.0758169 34.2044064,56.4926016 34.2044064,55.6958277 Z M40.252142,57.6554509 L40.252142,50.3230148 C40.252142,50.1650957 40.3439403,50.0789592 40.5275398,50.064603 L42.4773562,50.064603 C43.189722,50.064603 43.7643797,50.2296978 44.2013464,50.5598923 C44.6383131,50.8900869 44.8567931,51.4320285 44.8567931,52.1857335 C44.8567931,53.3773052 44.2839715,54.0699856 43.1383109,54.2637954 L44.8347613,57.4508748 C44.8641372,57.4867655 44.878825,57.5334228 44.878825,57.5908479 C44.878825,57.6841638 44.8347618,57.7685057 44.746634,57.8438762 C44.6585063,57.9192467 44.563036,57.9569314 44.4602203,57.9569314 C44.3280287,57.9569314 44.199511,57.8313157 44.0746634,57.5800808 L42.378213,54.3499327 L40.9791922,54.3499327 L40.9791922,57.6554509 C40.9791922,57.7415886 40.9424728,57.8097799 40.869033,57.8600269 C40.7955933,57.9102739 40.7111388,57.935397 40.6156671,57.935397 C40.5128514,57.935397 40.4265609,57.9102739 40.3567931,57.8600269 C40.2870254,57.8097799 40.252142,57.7415886 40.252142,57.6554509 Z M40.9791922,53.7362046 L42.4773562,53.7362046 C43.5789529,53.7362046 44.129743,53.2301531 44.129743,52.218035 C44.129743,51.2202732 43.5789529,50.7213997 42.4773562,50.7213997 L40.9791922,50.7213997 L40.9791922,53.7362046 Z M45.9914321,55.6958277 L45.9914321,52.3580081 C45.9914321,51.5684124 46.1988963,50.9887861 46.6138311,50.6191117 C47.0287658,50.2494374 47.5850638,50.064603 48.2827417,50.064603 C48.9804196,50.064603 49.5367176,50.2494374 49.9516524,50.6191117 C50.3665871,50.9887861 50.5740514,51.5684124 50.5740514,52.3580081 L50.5740514,55.6958277 C50.5740514,56.4926016 50.3665871,57.0758169 49.9516524,57.4454913 C49.5367176,57.8151656 48.9804196,58 48.2827417,58 C47.5850638,58 47.0287658,57.8151656 46.6138311,57.4454913 C46.1988963,57.0758169 45.9914321,56.4926016 45.9914321,55.6958277 Z M46.7184823,55.6958277 C46.7184823,56.7940836 47.2398969,57.3432032 48.2827417,57.3432032 C49.3255866,57.3432032 49.8470012,56.7940836 49.8470012,55.6958277 L49.8470012,52.3580081 C49.8470012,51.2669304 49.3255866,50.7213997 48.2827417,50.7213997 C47.2398969,50.7213997 46.7184823,51.2669304 46.7184823,52.3580081 L46.7184823,55.6958277 Z M52.127295,55.6958277 L52.127295,50.3230148 C52.127295,50.1507394 52.2484688,50.064603 52.4908201,50.064603 C52.7331713,50.064603 52.8543452,50.1507394 52.8543452,50.3230148 L52.8543452,55.6958277 C52.8543452,56.2413666 52.9920427,56.6523091 53.2674419,56.9286676 C53.542841,57.2050261 53.933902,57.3432032 54.4406365,57.3432032 C54.947371,57.3432032 55.3384319,57.2050261 55.6138311,56.9286676 C55.8892303,56.6523091 56.0269278,56.2413666 56.0269278,55.6958277 L56.0269278,50.3230148 C56.0269278,50.1507394 56.1481016,50.064603 56.3904529,50.064603 C56.6328041,50.064603 56.753978,50.1507394 56.753978,50.3230148 L56.753978,55.6958277 C56.753978,56.4926016 56.5428418,57.0758169 56.120563,57.4454913 C55.6982843,57.8151656 55.1383144,58 54.4406365,58 C53.7429586,58 53.1829886,57.8151656 52.7607099,57.4454913 C52.3384312,57.0758169 52.127295,56.4926016 52.127295,55.6958277 Z M58.3953488,57.6554509 L58.3953488,50.3230148 C58.3953488,50.1650957 58.498163,50.0789592 58.7037944,50.064603 L60.7307222,50.064603 C61.4210561,50.064603 61.9718462,50.2476429 62.3831089,50.6137281 C62.7943717,50.9798134 63,51.5576452 63,52.3472409 L63,52.4549125 C63,53.2445082 62.7925357,53.8241345 62.377601,54.1938089 C61.9626662,54.5634832 61.4063682,54.7483176 60.7086903,54.7483176 L59.122399,54.7483176 L59.122399,57.6554509 C59.122399,57.7415886 59.0856797,57.8097799 59.0122399,57.8600269 C58.9388001,57.9102739 58.8543456,57.935397 58.7588739,57.935397 C58.6560582,57.935397 58.5697678,57.9102739 58.5,57.8600269 C58.4302322,57.8097799 58.3953488,57.7415886 58.3953488,57.6554509 Z M59.122399,54.1345895 L60.7086903,54.1345895 C61.2080808,54.1345895 61.5936339,53.9982068 61.8653611,53.7254374 C62.1370883,53.452668 62.2729498,53.039931 62.2729498,52.487214 L62.2729498,52.3580081 C62.2729498,51.2669304 61.7515352,50.7213997 60.7086903,50.7213997 L59.122399,50.7213997 L59.122399,54.1345895 Z" id="GTONIA-GROUP"></path>
            </g>
        </g>
    </g>
</svg>