<?xml version="1.0" encoding="UTF-8"?>
<svg width="58px" height="41px" viewBox="0 0 58 41" version="1.1" xmlns="http://www.w3.org/2000/svg" xmlns:xlink="http://www.w3.org/1999/xlink">
    <!-- Generator: Sketch 49.3 (51167) - http://www.bohemiancoding.com/sketch -->
    <title>Combined Shape Copy</title>
    <desc>Created with Sketch.</desc>
    <defs></defs>
    <g id="Wallpaper" stroke="none" stroke-width="1" fill="none" fill-rule="evenodd">
        <g id="Artboard" transform="translate(-556.000000, -598.000000)" fill="#AFB2B4">
            <path d="M574.993267,625.09937 L588.41155,613.017493 C591.107088,610.105534 594.962289,608.282606 599.243258,608.282606 C607.393182,608.282606 614,614.889424 614,623.039348 C614,631.189271 607.393182,637.79609 599.243258,637.79609 C593.193765,637.79609 587.994482,634.155906 585.71634,628.946468 L576.615298,637.141083 C576.076103,637.759632 575.377279,638.25434 574.551634,638.55485 C571.9479,639.502532 569.068907,638.160036 568.121225,635.556301 L562.196077,619.277091 C561.248395,616.673356 562.590892,613.794364 565.194626,612.846682 C567.798361,611.899 570.677353,613.241496 571.625035,615.845231 L574.993267,625.09937 Z M599.410949,618.344021 C596.725178,618.344021 594.547931,620.521268 594.547931,623.207038 C594.547931,625.892808 596.725178,628.070055 599.410949,628.070055 C602.096719,628.070055 604.273966,625.892808 604.273966,623.207038 C604.273966,620.521268 602.096719,618.344021 599.410949,618.344021 Z M561.460089,598 C564.230926,598 566.477133,600.246207 566.477133,603.017044 C566.477133,605.787881 564.230926,608.034088 561.460089,608.034088 C558.689252,608.034088 556.443045,605.787881 556.443045,603.017044 C556.443045,600.246207 558.689252,598 561.460089,598 Z" id="Combined-Shape-Copy"></path>
        </g>
    </g>
</svg>