<?xml version="1.0" encoding="UTF-8"?>
<svg width="161px" height="36px" viewBox="0 0 161 36" version="1.1" xmlns="http://www.w3.org/2000/svg" xmlns:xlink="http://www.w3.org/1999/xlink">
    <!-- Generator: Sketch 49.3 (51167) - http://www.bohemiancoding.com/sketch -->
    <title>Combined Shape</title>
    <desc>Created with Sketch.</desc>
    <defs></defs>
    <g id="Page-3" stroke="none" stroke-width="1" fill="none" fill-rule="evenodd">
        <g id="A4-Copy-3" transform="translate(-233.000000, -310.000000)" fill="#AFB2B4" fill-rule="nonzero">
            <path d="M265.887512,344.106887 C265.243556,344.619527 264.428043,344.925852 263.540984,344.925852 L258.32494,344.925852 C258.347845,344.87879 258.370188,344.831516 258.391967,344.784029 C258.86864,343.744725 259.106974,342.709343 259.106974,341.677853 C259.106974,340.552591 258.856919,339.595352 258.356803,338.806106 C257.856687,338.01686 257.227643,337.348746 256.469654,336.801743 C255.711666,336.254741 254.895082,335.789796 254.019878,335.406895 C253.144675,335.023993 252.328091,334.660633 251.570102,334.316803 C250.812113,333.972973 250.18307,333.625241 249.682953,333.273596 C249.182837,332.921952 248.932783,332.503892 248.932783,332.019405 C248.932783,331.816232 248.987482,331.605249 249.096882,331.386448 C249.206283,331.167647 249.38601,330.968385 249.636068,330.788656 C249.886126,330.608926 250.218229,330.460457 250.632388,330.343242 C251.046547,330.226027 251.558377,330.167421 252.167894,330.167421 C253.01184,330.167421 253.894845,330.292448 254.816935,330.542506 C255.739024,330.792564 256.676728,331.167646 257.630075,331.667762 L260.021244,325.61951 C259.177298,325.306938 258.173173,325.064697 257.00884,324.892782 C255.844506,324.720867 254.605956,324.634911 253.29315,324.634911 C251.214542,324.634911 249.37039,324.857616 247.760641,325.303032 C246.150891,325.748448 244.79122,326.357956 243.681587,327.131573 C242.571954,327.905191 241.72802,328.815545 241.149761,329.862664 C240.571501,330.909782 240.282376,332.035027 240.282376,333.238432 C240.282376,334.426208 240.53243,335.426426 241.032547,336.239115 C241.532663,337.051804 242.161706,337.751175 242.919695,338.337249 C243.677684,338.923323 244.498175,339.415618 245.381193,339.814148 C246.264211,340.212678 247.084702,340.583853 247.842691,340.927683 C248.60068,341.271512 249.229723,341.619244 249.729839,341.970889 C250.229955,342.322533 250.48001,342.732779 250.48001,343.201638 C250.48001,343.654868 250.226048,344.049485 249.718118,344.385501 C249.210187,344.721517 248.417046,344.889522 247.33867,344.889522 C246.213408,344.889522 245.045185,344.69026 243.833966,344.29173 C242.622746,343.893199 241.431081,343.32667 240.258933,342.592124 L239.345342,344.925852 L236.770492,344.925852 C234.688107,344.925852 233,343.237745 233,341.15536 L233,314.384868 C233,312.302483 234.688107,310.614377 236.770492,310.614377 L263.540984,310.614377 C265.623369,310.614377 267.311475,312.302483 267.311475,314.384868 L267.311475,341.15536 C267.311475,341.584242 267.239869,341.996399 267.107959,342.380528 C267.004788,342.187874 266.877432,341.960181 266.877432,341.960181 C266.877432,341.960181 266.299074,341.264762 265.142359,339.873922 C265.067609,339.788821 264.990354,339.722014 264.915551,339.674939 C264.864176,339.642535 264.823084,339.596972 264.79271,339.544362 L264.708361,339.398266 C264.682677,339.353779 264.665856,339.304692 264.658999,339.253805 L264.548088,338.442897 C264.542663,338.402531 264.529247,338.363512 264.508849,338.328181 C264.399412,338.13863 264.157041,338.073796 263.96749,338.183233 L263.725071,338.323194 L262.895879,336.886991 L261.151508,333.865652 C261.128653,333.826065 261.118128,333.780736 261.120935,333.735273 L261.14466,333.360354 C261.148421,333.300759 261.129081,333.24195 261.090594,333.196431 L260.790247,332.840297 L260.363427,332.334191 L260.195539,332.431121 L259.985615,332.552321 L259.817727,332.649252 L260.042543,333.271812 L260.20079,333.709987 C260.221042,333.766207 260.262228,333.812231 260.315719,333.838771 L260.65227,334.005685 C260.693175,334.02591 260.727115,334.057894 260.749895,334.097351 L262.494341,337.118819 L263.323533,338.555022 L263.081114,338.694983 C262.891563,338.80442 262.8266,339.046865 262.935963,339.236287 C262.956361,339.271618 262.983371,339.302617 263.015691,339.327627 L263.662503,339.829133 C263.703014,339.860589 263.737243,339.899626 263.762928,339.944112 L263.847276,340.090208 C263.877651,340.142818 263.896638,340.201315 263.898939,340.261881 C263.902306,340.350199 263.921535,340.450507 263.957859,340.557794 C264.271023,341.73882 264.564443,342.566305 264.838118,343.040248 C265.016998,343.350027 265.366795,343.705573 265.887512,344.106887 Z M282.024702,326.148715 L280.532074,327.705953 C279.424331,326.667789 278.410481,326.148715 277.490491,326.148715 C276.908457,326.148715 276.420307,326.332751 276.026026,326.700827 C275.631745,327.068903 275.434607,327.521913 275.434607,328.05987 C275.434607,328.597827 275.655213,329.069713 276.096433,329.47554 C276.537652,329.881368 277.321509,330.381566 278.448027,330.976151 C279.574544,331.570735 280.442889,332.226656 281.053086,332.943932 C281.663283,333.661209 281.968377,334.538916 281.968377,335.577079 C281.968377,336.898378 281.513083,338.012027 280.602481,338.918061 C279.691879,339.824094 278.570072,340.277104 277.237026,340.277104 C275.378272,340.277104 273.829334,339.484337 272.590164,337.898778 L274.05463,336.256601 C275.068496,337.44577 276.101121,338.040345 277.152538,338.040345 C277.865999,338.040345 278.476187,337.804402 278.98312,337.33251 C279.490053,336.860618 279.743516,336.308512 279.743516,335.676176 C279.743516,335.04384 279.513522,334.515328 279.053527,334.090625 C278.593532,333.665922 277.804982,333.170442 276.687852,332.604172 C275.570721,332.037901 274.725846,331.410293 274.153199,330.72133 C273.580553,330.032367 273.294234,329.126347 273.294234,328.003243 C273.294234,326.880139 273.70259,325.922212 274.519316,325.129433 C275.336041,324.336653 276.415605,323.94027 277.758038,323.94027 C279.100472,323.94027 280.522679,324.676411 282.024702,326.148715 Z M298.19015,339.767463 L295.852638,339.767463 L295.852638,337.445764 C294.331839,339.257831 292.529438,340.16385 290.44538,340.16385 C289.337638,340.16385 288.333174,339.876 287.43196,339.300292 C286.530746,338.724583 285.854846,337.931815 285.404238,336.921966 C284.953631,335.912116 284.728331,334.359613 284.728331,332.264411 L284.728331,324.336657 L287.037681,324.336657 L287.037681,331.698143 C287.037681,333.396955 287.117475,334.553074 287.277065,335.166535 C287.436655,335.779995 287.671342,336.299069 287.981135,336.723772 C288.290927,337.148475 288.685202,337.464638 289.163972,337.672271 C289.642742,337.879904 290.224768,337.983718 290.910066,337.983718 C291.595364,337.983718 292.266571,337.81384 292.923706,337.474077 C293.580842,337.134314 294.144092,336.662429 294.613474,336.058407 C295.082857,335.454385 295.406726,334.81262 295.585091,334.133095 C295.763456,333.45357 295.852638,332.09454 295.852638,330.055965 L295.852638,324.336657 L298.19015,324.336657 L298.19015,339.767463 Z M304.104338,339.767463 L301.794989,339.767463 L301.794989,318.532409 L304.104338,318.532409 L304.104338,339.767463 Z M314.77804,326.375223 L311.736458,326.375223 L311.736458,337.190943 C311.736458,337.587333 311.792783,337.827994 311.905434,337.912935 C312.018086,337.997875 312.299711,338.040345 312.750318,338.040345 L314.102133,338.040345 L314.102133,340.050597 C313.200919,340.201602 312.515631,340.277104 312.046248,340.277104 C311.145034,340.277104 310.478522,340.055318 310.04669,339.611739 C309.614858,339.16816 309.398945,338.465051 309.398945,337.50239 L309.398945,326.375223 L306.751642,326.375223 L306.751642,324.336657 L309.398945,324.336657 L309.398945,318.532409 L311.736458,318.532409 L311.736458,324.336657 L314.77804,324.336657 L314.77804,326.375223 Z M332.548768,339.767463 L330.267581,339.767463 L330.267581,337.50239 C328.59658,339.352209 326.672141,340.277104 324.494207,340.277104 C322.316272,340.277104 320.452853,339.47018 318.903891,337.856308 C317.354929,336.242436 316.58046,334.317144 316.58046,332.080374 C316.58046,329.843603 317.359623,327.927749 318.917972,326.332752 C320.476321,324.737756 322.377292,323.94027 324.620939,323.94027 C326.864587,323.94027 328.746782,324.855727 330.267581,326.68667 L330.267581,324.336657 L332.548768,324.336657 L332.548768,339.767463 Z M349.953379,339.767463 L347.644029,339.767463 L347.644029,332.405978 C347.644029,330.707165 347.564235,329.551046 347.404645,328.937586 C347.245055,328.324125 347.010368,327.805052 346.700575,327.380348 C346.390783,326.955645 345.996508,326.639482 345.517738,326.431849 C345.038968,326.224217 344.456942,326.120402 343.771644,326.120402 C343.086346,326.120402 342.415139,326.290281 341.758004,326.630043 C341.100868,326.969806 340.537618,327.441691 340.068236,328.045713 C339.598853,328.649736 339.274984,329.2915 339.096619,329.971025 C338.918254,330.65055 338.829073,332.00958 338.829073,334.048155 L338.829073,339.767463 L336.49156,339.767463 L336.49156,324.336657 L338.829073,324.336657 L338.829073,326.658357 C340.349871,324.84629 342.152273,323.94027 344.23633,323.94027 C345.344073,323.94027 346.348536,324.22812 347.24975,324.803829 C348.150964,325.379537 348.826865,326.172305 349.277472,327.182155 C349.728079,328.192004 349.953379,329.744507 349.953379,331.83971 L349.953379,339.767463 Z M355.980218,334.925871 C356.505927,334.925871 356.951833,335.109906 357.317951,335.477982 C357.68407,335.846058 357.867126,336.299068 357.867126,336.837025 C357.867126,337.374983 357.68407,337.827993 357.317951,338.196069 C356.951833,338.564145 356.51062,338.74818 355.9943,338.74818 C355.477979,338.74818 355.032073,338.559426 354.656567,338.181912 C354.281061,337.804398 354.093311,337.351388 354.093311,336.822869 C354.093311,336.294349 354.281061,335.846058 354.656567,335.477982 C355.032073,335.109906 355.473285,334.925871 355.980218,334.925871 Z M374.933784,339.767463 L372.624434,339.767463 L372.624434,332.405978 C372.624434,330.707165 372.54464,329.551046 372.38505,328.937586 C372.22546,328.324125 371.990773,327.805052 371.68098,327.380348 C371.371188,326.955645 370.976912,326.639482 370.498142,326.431849 C370.019372,326.224217 369.437347,326.120402 368.752049,326.120402 C368.066751,326.120402 367.395544,326.290281 366.738408,326.630043 C366.081273,326.969806 365.518023,327.441691 365.04864,328.045713 C364.579258,328.649736 364.255389,329.2915 364.077024,329.971025 C363.898658,330.65055 363.809477,332.00958 363.809477,334.048155 L363.809477,339.767463 L361.471965,339.767463 L361.471965,324.336657 L363.809477,324.336657 L363.809477,326.658357 C365.330276,324.84629 367.132677,323.94027 369.216735,323.94027 C370.324477,323.94027 371.328941,324.22812 372.230155,324.803829 C373.131369,325.379537 373.807269,326.172305 374.257876,327.182155 C374.708483,328.192004 374.933784,329.744507 374.933784,331.83971 L374.933784,339.767463 Z M394,336.143347 C394,338.181922 393.826331,339.691956 393.478988,340.673492 C393.131645,341.655028 392.605945,342.485546 391.901871,343.165071 C391.197798,343.844596 390.352922,344.358951 389.367219,344.708152 C388.381516,345.057352 387.297259,345.23195 386.114416,345.23195 C382.115278,345.23195 379.449226,343.533163 378.11618,340.135537 L380.594507,340.135537 C381.683474,342.09861 383.495263,343.080131 386.029927,343.080131 C387.193996,343.080131 388.236009,342.853626 389.155998,342.400609 C390.075988,341.947593 390.723726,341.343579 391.099232,340.588552 C391.474738,339.833524 391.662488,338.672686 391.662488,337.106003 L391.662488,336.964436 C390.930251,337.794966 390.047825,338.427293 389.015184,338.861434 C387.982543,339.295575 386.912367,339.512642 385.804625,339.512642 C383.58914,339.512642 381.735108,338.748188 380.242472,337.219256 C378.749836,335.690325 378.012916,333.887723 378.031692,331.811396 C378.012916,329.640691 378.79208,327.786182 380.369204,326.247812 C381.946329,324.709443 383.819136,323.94027 385.987683,323.94027 C388.15623,323.94027 390.047812,324.827414 391.662488,326.60173 L391.662488,324.336657 L394,324.336657 L394,336.143347 Z M391.746976,331.811396 C391.746976,330.188086 391.207194,328.847932 390.127615,327.790893 C389.048035,326.733854 387.729091,326.205342 386.170741,326.205342 C384.518515,326.205342 383.133858,326.776323 382.016728,327.918303 C380.899598,329.060283 380.341042,330.386281 380.341042,331.896336 C380.341042,333.406392 380.876129,334.685201 381.946321,335.732803 C383.016513,336.780404 384.387089,337.304197 386.05809,337.304197 C387.729091,337.304197 389.094974,336.789842 390.155778,335.761116 C391.216582,334.732391 391.746976,333.41583 391.746976,331.811396 Z M324.663183,338.096972 C326.221533,338.096972 327.563946,337.53071 328.690464,336.398168 C329.816982,335.265626 330.380232,333.854689 330.380232,332.165314 C330.380232,330.475939 329.826369,329.060283 328.718627,327.918303 C327.610885,326.776323 326.25439,326.205342 324.649102,326.205342 C323.043814,326.205342 321.68732,326.795199 320.579577,327.97493 C319.471835,329.154661 318.917972,330.546723 318.917972,332.151157 C318.917972,333.755591 319.481222,335.147653 320.60774,336.327384 C321.734258,337.507115 323.086059,338.096972 324.663183,338.096972 Z" id="Combined-Shape"></path>
        </g>
    </g>
</svg>