<?xml version="1.0" encoding="UTF-8"?>
<svg width="440px" height="79px" viewBox="0 0 440 79" version="1.1" xmlns="http://www.w3.org/2000/svg" xmlns:xlink="http://www.w3.org/1999/xlink">
    <!-- Generator: Sketch 49.3 (51167) - http://www.bohemiancoding.com/sketch -->
    <title>Sultan Logo </title>
    <desc>Created with Sketch.</desc>
    <defs></defs>
    <g id="Page-12" stroke="none" stroke-width="1" fill="none" fill-rule="evenodd">
        <g id="Artboard" transform="translate(-180.000000, -1461.000000)" fill="#AFB2B4" fill-rule="nonzero">
            <g id="Sultan-Logo-" transform="translate(180.000000, 1461.000000)">
                <path d="M119.659232,24.4717482 L115.391011,28.9010347 C112.223384,25.9481623 109.324243,24.4717482 106.693503,24.4717482 C105.029156,24.4717482 103.633274,24.9952041 102.505814,26.0421316 C101.378354,27.0890591 100.814632,28.377566 100.814632,29.9076908 C100.814632,31.4378156 101.445463,32.7800101 102.707145,33.9343148 C103.968827,35.0886195 106.210292,36.5113458 109.431607,38.2025363 C112.652923,39.8937269 115.135982,41.7593774 116.880861,43.7995438 C118.625741,45.8397102 119.498168,48.3361922 119.498168,51.2890646 C119.498168,55.0472659 118.196239,58.2148451 115.592342,60.7918975 C112.988445,63.3689498 109.7806,64.6574566 105.968711,64.6574566 C100.653541,64.6574566 96.2242984,62.4025696 92.6808511,57.8927281 L96.8685398,53.2218442 C99.7677242,56.6042253 102.720552,58.2953905 105.727113,58.2953905 C107.76728,58.2953905 109.512133,57.6242932 110.961725,56.2820785 C112.411316,54.9398637 113.136102,53.369496 113.136102,51.5709283 C113.136102,49.7723606 112.478426,48.2691026 111.163056,47.0611093 C109.847685,45.8531161 107.592798,44.4438117 104.398327,42.8331541 C101.203856,41.2224963 98.787906,39.4373775 97.1504038,37.477744 C95.5129017,35.5181105 94.6941628,32.9410968 94.6941628,29.7466258 C94.6941628,26.5521547 95.8618723,23.8274997 98.1973258,21.5725789 C100.532779,19.3176581 103.619828,18.1902146 107.458562,18.1902146 C111.297296,18.1902146 115.364145,20.2840382 119.659232,24.4717482 Z M165.884877,63.2078719 L159.200681,63.2078719 L159.200681,56.6042085 C154.851906,61.758313 149.697878,64.3353267 143.738445,64.3353267 C140.570818,64.3353267 137.698521,63.5165879 135.121469,61.8790859 C132.544417,60.241584 130.611657,57.9866971 129.32313,55.1143575 C128.034604,52.2420179 127.39035,47.8261977 127.39035,41.8667643 L127.39035,19.3176694 L133.994014,19.3176694 L133.994014,40.2561146 C133.994014,45.0880877 134.222187,48.3764645 134.67854,50.1213437 C135.134893,51.8662228 135.805991,53.3426368 136.691852,54.5506302 C137.577714,55.7586234 138.705157,56.6578938 140.074216,57.2484682 C141.443275,57.8390427 143.107597,58.1343256 145.06723,58.1343256 C147.026864,58.1343256 148.946202,57.6511355 150.825303,56.6847409 C152.704403,55.7183462 154.315037,54.3761517 155.657252,52.6581168 C156.999467,50.9400819 157.925581,49.1146972 158.435622,47.181908 C158.945664,45.2491188 159.200681,41.3835983 159.200681,35.5852307 L159.200681,19.3176694 L165.884877,19.3176694 L165.884877,63.2078719 Z M182.796698,63.2078719 L176.193035,63.2078719 L176.193035,2.80851064 L182.796698,2.80851064 L182.796698,63.2078719 Z M213.318508,25.1160081 L204.621,25.1160081 L204.621,55.8794161 C204.621,57.0068764 204.782064,57.6913957 205.104195,57.9329943 C205.426327,58.174593 206.231644,58.2953905 207.52017,58.2953905 L211.385729,58.2953905 L211.385729,64.0131968 C208.808677,64.4427055 206.849073,64.6574566 205.506858,64.6574566 C202.929806,64.6574566 201.02389,64.0266251 199.789052,62.7649433 C198.554214,61.5032614 197.936805,59.5033915 197.936805,56.7652734 L197.936805,25.1160081 L190.366752,25.1160081 L190.366752,19.3176694 L197.936805,19.3176694 L197.936805,2.80851064 L204.621,2.80851064 L204.621,19.3176694 L213.318508,19.3176694 L213.318508,25.1160081 Z M264.134504,63.2078719 L257.611373,63.2078719 L257.611373,56.7652734 C252.833089,62.0267552 247.330092,64.6574566 241.102215,64.6574566 C234.874339,64.6574566 229.545826,62.3623038 225.116518,57.7719294 C220.687209,53.181555 218.472588,47.705401 218.472588,41.3433031 C218.472588,34.9812052 220.700631,29.5318952 225.156783,24.9952094 C229.612937,20.4585236 235.048825,18.1902146 241.464611,18.1902146 C247.880398,18.1902146 253.262598,20.7940722 257.611373,26.0018653 L257.611373,19.3176694 L264.134504,19.3176694 L264.134504,63.2078719 Z M241.58541,58.4564555 C246.041563,58.4564555 249.880239,56.845822 253.101555,53.6245065 C256.32287,50.4031912 257.933504,46.3900294 257.933504,41.5849006 C257.933504,36.7797718 256.349713,32.753188 253.182087,29.5050283 C250.014461,26.2568687 246.135518,24.6328132 241.545144,24.6328132 C236.954769,24.6328132 233.075826,26.3105564 229.9082,29.6660933 C226.740573,33.0216301 225.156783,36.9811042 225.156783,41.5446343 C225.156783,46.1081644 226.767417,50.0676386 229.988732,53.4231754 C233.210048,56.7787123 237.075568,58.4564555 241.58541,58.4564555 Z M313.903578,63.2078719 L307.299915,63.2078719 L307.299915,42.2694266 C307.299915,37.4374536 307.071741,34.1490769 306.615388,32.4041977 C306.159035,30.6593185 305.487938,29.1829044 304.602077,27.9749112 C303.716215,26.7669179 302.588771,25.8676476 301.219712,25.277073 C299.850653,24.6864985 298.186332,24.3912158 296.226698,24.3912158 C294.267065,24.3912158 292.347726,24.8744058 290.468626,25.8408004 C288.589525,26.807195 286.978892,28.1493896 285.636677,29.8674245 C284.294463,31.5854594 283.368348,33.410844 282.858306,35.3436332 C282.348265,37.2764224 282.093248,41.1419429 282.093248,46.9403106 L282.093248,63.2078719 L275.409052,63.2078719 L275.409052,19.3176694 L282.093248,19.3176694 L282.093248,25.9213329 C286.442024,20.7672283 291.596051,18.1902146 297.555484,18.1902146 C300.723111,18.1902146 303.595408,19.0089534 306.17246,20.6464553 C308.749512,22.2839573 310.682273,24.5388443 311.970799,27.4111838 C313.259325,30.2835233 313.903578,34.6993436 313.903578,40.6587771 L313.903578,63.2078719 Z M331.137529,49.4368175 C332.64081,49.4368175 333.915895,49.9602734 334.962822,51.0072009 C336.009749,52.0541284 336.533205,53.3426352 336.533205,54.8727601 C336.533205,56.4028849 336.009749,57.6913917 334.962822,58.7383192 C333.915895,59.7852467 332.654232,60.3087026 331.177796,60.3087026 C329.70136,60.3087026 328.426274,59.7718247 327.352503,58.6980529 C326.278731,57.6242811 325.741853,56.3357743 325.741853,54.8324938 C325.741853,53.3292133 326.278731,52.0541284 327.352503,51.0072009 C328.426274,49.9602734 329.687937,49.4368175 331.137529,49.4368175 Z M385.335889,63.2078719 L378.732226,63.2078719 L378.732226,42.2694266 C378.732226,37.4374536 378.504053,34.1490769 378.047699,32.4041977 C377.591346,30.6593185 376.92025,29.1829044 376.034388,27.9749112 C375.148526,26.7669179 374.021083,25.8676476 372.652023,25.277073 C371.282964,24.6864985 369.618643,24.3912158 367.65901,24.3912158 C365.699377,24.3912158 363.780038,24.8744058 361.900937,25.8408004 C360.021837,26.807195 358.411203,28.1493896 357.068988,29.8674245 C355.726774,31.5854594 354.800659,33.410844 354.290618,35.3436332 C353.780576,37.2764224 353.52556,41.1419429 353.52556,46.9403106 L353.52556,63.2078719 L346.841363,63.2078719 L346.841363,19.3176694 L353.52556,19.3176694 L353.52556,25.9213329 C357.874335,20.7672283 363.028362,18.1902146 368.987796,18.1902146 C372.155423,18.1902146 375.027719,19.0089534 377.604771,20.6464553 C380.181824,22.2839573 382.114584,24.5388443 383.40311,27.4111838 C384.691636,30.2835233 385.335889,34.6993436 385.335889,40.6587771 L385.335889,63.2078719 Z M439.856379,52.8997142 C439.856379,58.6980819 439.359767,62.9931047 438.366529,65.7849113 C437.37329,68.576718 435.870032,70.9389805 433.85671,72.8717697 C431.843388,74.804559 429.427438,76.267551 426.608786,77.26079 C423.790135,78.2540288 420.689666,78.7506408 417.307285,78.7506408 C405.871615,78.7506408 398.24795,73.9187403 394.43606,64.2547942 L401.522918,64.2547942 C404.636856,69.8384075 409.817728,72.6301723 417.065687,72.6301723 C420.39438,72.6301723 423.374052,71.9859189 426.004793,70.6973927 C428.635534,69.4088666 430.487763,67.6908575 431.561534,65.5433139 C432.635306,63.3957703 433.172184,60.0939716 433.172184,55.6378187 L433.172184,55.2351562 C431.078329,57.5974542 428.555003,59.395995 425.60213,60.6308325 C422.649258,61.86567 419.589054,62.4830795 416.421427,62.4830795 C410.086174,62.4830795 404.784505,60.3087243 400.516262,55.9599486 C396.24802,51.6111728 394.140773,46.4839894 394.194463,40.5782445 C394.140773,34.4040568 396.368817,29.1292319 400.878658,24.7536119 C405.3885,20.3779919 410.743856,18.1902146 416.944888,18.1902146 C423.145921,18.1902146 428.554965,20.7135405 433.172184,25.7602679 L433.172184,19.3176694 L439.856379,19.3176694 L439.856379,52.8997142 Z M433.413781,40.5782445 C433.413781,35.9610259 431.870258,32.1491932 428.783163,29.1426322 C425.696069,26.1360711 421.924502,24.6328132 417.46835,24.6328132 C412.743753,24.6328132 408.78428,26.2568687 405.589808,29.5050283 C402.395337,32.753188 400.798126,36.5247548 400.798126,40.819842 C400.798126,45.1149292 402.328228,48.7522765 405.388478,51.7319932 C408.448727,54.7117099 412.367935,56.201546 417.146219,56.201546 C421.924504,56.201546 425.830291,54.7385539 428.863695,51.8125258 C431.897101,48.8864976 433.413781,45.1417746 433.413781,40.5782445 Z" id="sultan.ng"></path>
                <path d="M72.6827686,74.0198406 C71.2596007,75.1527951 69.4572817,75.8297872 67.4968436,75.8297872 L55.9691709,75.8297872 C56.0197917,75.7257778 56.0691692,75.6212994 56.1173032,75.5163526 C57.1707708,73.2194466 57.6974973,70.9312103 57.6974973,68.6515751 C57.6974973,66.1646993 57.1448665,64.0491603 56.0395883,62.3048935 C54.9343108,60.5606266 53.5440992,59.0840667 51.8689122,57.8751693 C50.1937255,56.6662713 48.389041,55.6387237 46.4548046,54.7924952 C44.5205683,53.9462667 42.7158838,53.1432254 41.0406969,52.3833467 C39.36551,51.6234681 37.9752986,50.8549662 36.8700206,50.0778175 C35.7647428,49.3006692 35.212112,48.3767396 35.212112,47.3060017 C35.212112,46.8569826 35.3329999,46.3907006 35.5747795,45.9071415 C35.816559,45.4235822 36.2137623,44.9832047 36.7664012,44.5859956 C37.3190404,44.1887863 38.053003,43.8606616 38.968311,43.6016124 C39.8836193,43.3425629 41.0147854,43.21304 42.3618429,43.21304 C44.2269993,43.21304 46.1784763,43.4893552 48.2163324,44.0419943 C50.2541886,44.5946332 52.3265535,45.4235792 54.4334898,46.5288572 L59.7180735,33.1619692 C57.8529166,32.4711705 55.6337592,31.9358096 53.060534,31.5558702 C50.4873091,31.1759309 47.7500601,30.9859643 44.8487057,30.9859643 C40.2548942,30.9859643 36.1792431,31.4781507 32.6216298,32.4625389 C29.0640167,33.4469273 26.0590872,34.7939643 23.6067518,36.5036913 C21.1544165,38.213418 19.289288,40.225339 18.0113105,42.5395146 C16.733333,44.8536902 16.0943537,47.3405281 16.0943537,50.0001032 C16.0943537,52.6251382 16.6469842,54.8356609 17.7522623,56.6317376 C18.8575401,58.427814 20.2477518,59.9734531 21.9229387,61.2687006 C23.5981253,62.5639481 25.4114447,63.6519399 27.362951,64.5327079 C29.3144575,65.4134764 31.1277769,66.2337874 32.8029635,66.993666 C34.4781504,67.7535446 35.8683621,68.5220467 36.9736399,69.2991955 C38.0789179,70.0763438 38.6315485,70.9830037 38.6315485,72.0192016 C38.6315485,73.0208595 38.070283,73.8929802 36.947735,74.6355885 C35.8251872,75.3781974 34.0723119,75.7494958 31.6890564,75.7494958 C29.202181,75.7494958 26.6203596,75.3091182 23.9435147,74.4283502 C21.2666696,73.5475817 18.6330392,72.2955276 16.0425439,70.6721507 L14.0234692,75.8297872 L8.33294362,75.8297872 C3.73078609,75.8297872 0,72.0990013 0,67.4968436 L0,8.33294362 C0,3.73078609 3.73078609,0 8.33294362,0 L67.4968436,0 C72.0990013,0 75.8297872,3.73078609 75.8297872,8.33294362 L75.8297872,67.4968436 C75.8297872,68.4446891 75.6715338,69.3555732 75.3800085,70.2045139 C75.1519961,69.7787409 74.8705338,69.2755316 74.8705338,69.2755316 C74.8705338,69.2755316 73.592339,67.7386252 71.0359502,64.6648123 C70.8707483,64.4767349 70.7000125,64.3290893 70.5346947,64.225052 C70.4211535,64.1534363 70.3303395,64.0527405 70.2632106,63.93647 L70.0767971,63.6135918 C70.0200334,63.5152746 69.9828573,63.4067894 69.9677037,63.2943283 L69.7225855,61.5021866 C69.7105966,61.4129762 69.6809477,61.3267427 69.6358663,61.2486593 C69.3940051,60.8297437 68.8583568,60.6864578 68.4394413,60.928319 L67.9036849,61.2376377 L66.0711359,58.0635696 L62.2160042,51.3862851 C62.1654927,51.2987972 62.1422307,51.1986168 62.1484365,51.0981421 L62.2008683,50.2695562 C62.2091795,50.1378482 62.1664389,50.0078776 62.0813801,49.9072783 L61.4176018,49.1202077 L60.4743117,48.0016933 L60.1032726,48.215913 L59.6393303,48.4837699 L59.2682912,48.6979896 L59.7651436,50.0738747 L60.1148779,51.0422592 C60.1596342,51.1665066 60.2506567,51.268222 60.3688748,51.3268781 L61.1126674,51.6957636 C61.2030688,51.7404623 61.2780762,51.8111474 61.3284226,51.8983502 L65.1837195,58.5759196 L67.0162684,61.7499883 L66.4805125,62.0593069 C66.061597,62.3011677 65.9180261,62.836981 66.159723,63.2556116 C66.2048044,63.3336951 66.2644964,63.4022034 66.3359246,63.4574761 L67.7654054,64.565826 C67.8549375,64.6353441 67.930586,64.7216183 67.9873491,64.819935 L68.1737633,65.1428132 C68.2408921,65.2590836 68.2828544,65.388364 68.28794,65.5222164 C68.2953809,65.7174045 68.3378773,65.9390884 68.4181559,66.1761964 C69.1102611,68.7863129 69.7587307,70.6150893 70.3635647,71.662525 C70.758896,72.3471481 71.5319635,73.1329203 72.6827686,74.0198406 Z" id="Combined-Shape-Copy-3"></path>
            </g>
        </g>
    </g>
</svg>