<?xml version="1.0" encoding="UTF-8"?>
<svg width="1885px" height="408px" viewBox="0 0 1885 408" version="1.1" xmlns="http://www.w3.org/2000/svg" xmlns:xlink="http://www.w3.org/1999/xlink">
    <!-- Generator: Sketch 49.3 (51167) - http://www.bohemiancoding.com/sketch -->
    <title>Artboard Copy 3</title>
    <desc>Created with Sketch.</desc>
    <defs>
        <path d="M202.828582,405.433963 L28.6612832,405.433963 C12.8320918,405.433963 0,392.727634 0,377.053584 L0,371.823819 C0,356.541188 3.05402544,341.409608 8.98610525,327.300897 L118.479278,66.8852876 C119.866147,63.5867914 118.297989,59.7962694 114.976697,58.4189195 C114.181171,58.0890104 113.327644,57.9191404 112.465547,57.9191404 L74.8606964,57.9191404 C72.0190469,57.9191404 69.7154347,60.216849 69.7154347,63.0512157 L69.7154347,71.5163458 C69.7154347,89.1096635 55.3120636,103.371871 37.5446029,103.371871 C19.777149,103.371871 5.37377799,89.1096635 5.37377799,71.5163458 L5.37377799,31.8555259 C5.37377799,29.5031408 5.63128281,27.2103065 6.11990523,25.0031518 C8.06826251,10.8809836 20.2985843,0 35.0954494,0 L159.684291,0 C175.513476,0 188.345574,12.7063283 188.345574,28.3803763 L188.345574,33.6101418 C188.345574,48.8927753 185.291548,64.0243595 179.359462,78.1330721 L73.6361576,329.582528 C70.8624201,336.179519 73.9987354,343.760564 80.6413207,346.515264 C82.2323724,347.17508 83.939426,347.514828 85.6636191,347.514828 L198.066701,347.514828 C213.695774,347.514828 226.365642,334.877433 226.365642,319.288414 L226.365642,203.296171 C226.365642,185.702854 240.769013,171.440646 258.536466,171.440646 C276.303927,171.440646 290.707298,185.702854 290.707298,203.296171 L290.707298,311.993529 C290.707298,375.924529 243.113625,405.433963 202.828582,405.433963 Z M331.869394,308.340252 L331.869394,102.225785 C331.869394,38.8059456 366.407351,2.56603774 429.629373,2.56603774 C492.85139,2.56603774 527.389346,38.8059456 527.389346,102.225785 L527.389346,308.340252 C527.389346,371.760094 492.85139,408 429.629373,408 C366.407351,408 331.869394,371.760094 331.869394,308.340252 Z M396.185168,98.136022 L396.185168,312.430014 C396.185168,340.775785 409.093458,351.547169 429.629373,351.547169 C450.165279,351.547169 463.073572,340.775785 463.073572,312.430014 L463.073572,98.136022 C463.073572,69.7902595 450.165279,59.018868 429.629373,59.018868 C409.093458,59.018868 396.185168,69.7902595 396.185168,98.136022 Z M226.391524,71.0110551 L226.391524,31.6304543 C226.391524,14.16144 240.789101,0 258.549409,0 C276.309721,0 290.707298,14.16144 290.707298,31.6304543 L290.707298,71.0110551 C290.707298,88.4800695 276.309721,102.641509 258.549409,102.641509 C240.789101,102.641509 226.391524,88.4800695 226.391524,71.0110551 Z" id="path-1"></path>
    </defs>
    <g id="Artboard-Copy-3" stroke="none" stroke-width="1" fill="none" fill-rule="evenodd">
        <g id="Group">
            <mask id="mask-2" fill="white">
                <use xlink:href="#path-1"></use>
            </mask>
            <use id="Mask" fill="#FFFFFF" xlink:href="#path-1"></use>
        </g>
        <path d="M648,409 L648,1 L712.155592,1 L712.155592,409 L648,409 Z M894.870923,409 L814.989514,113.491429 L814.989514,409 L757.264992,409 L757.264992,1 L837.729477,1 L903.617063,245.217143 L903.617063,1 L960.758509,1 L960.758509,409 L894.870923,409 Z M1055.54365,1 L1104.51505,333.811429 L1153.48644,1 L1212.36872,1 L1149.40549,409 L1053.79467,409 L990.831442,1 L1055.54365,1 Z M1306.76432,59.2857143 L1306.76432,172.942857 L1395.06179,172.942857 L1395.06179,231.228571 L1306.76432,231.228571 L1306.76432,350.714286 L1417.8671,350.714286 L1417.8671,409 L1242.44165,409 L1242.44165,1 L1417.8671,1 L1417.8671,59.2857143 L1306.76432,59.2857143 Z M1593.56541,409 L1513.684,113.491429 L1513.684,409 L1455.95948,409 L1455.95948,1 L1536.42397,1 L1602.31155,245.217143 L1602.31155,1 L1659.453,1 L1659.453,409 L1593.56541,409 Z M1686.51864,59.2857143 L1686.51864,1 L1885,1 L1885,59.2857143 L1817.8666,59.2857143 L1817.8666,409 L1753.65204,409 L1753.65204,59.2857143 L1686.51864,59.2857143 Z" id="INVENT" fill="#FFFFFF"></path>
    </g>
</svg>